<!-- Generated by IcoMoon.io -->
<svg version="1.1" xmlns="http://www.w3.org/2000/svg" width="9284" height="1024" viewBox="0 0 9284 1024">
<g id="icomoon-ignore">
</g>
<path fill="#475467" d="M9242.829 490.663h-246.306c-1.297-15.191-6.622-28.283-16.043-39.272-9.353-10.99-21.504-19.394-36.318-25.212-14.609-6.141-30.72-9.212-48.538-9.212-22.938 0-42.667 4.202-59.119 12.606-16.521 8.404-24.576 20.363-24.235 35.879-0.341 10.99 4.369 21.172 14.063 30.545 9.967 9.374 29.218 16.646 57.685 21.818l151.279 27.152c76.254 13.899 132.983 37.333 170.189 70.303 37.478 32.646 56.388 76.443 56.73 131.391-0.341 53.016-16.179 99.075-47.514 138.185-31.061 38.789-73.591 68.847-127.522 90.18-53.658 21.012-114.961 31.519-183.774 31.519-113.801 0-202.82-23.272-267.127-69.823-64.034-46.544-99.738-107.957-107.179-184.238h265.694c3.55 23.593 15.223 41.854 34.884 54.784 20.070 12.609 45.261 18.91 75.639 18.91 24.576 0 44.783-4.198 60.621-12.602 16.179-8.404 24.439-20.364 24.713-35.881-0.273-14.22-7.441-25.539-21.299-33.942-13.585-8.404-34.953-15.189-64.034-20.364l-131.823-23.272c-75.981-13.251-132.847-38.463-170.667-75.635s-56.593-85.010-56.252-143.515c-0.341-51.717 13.244-95.515 40.687-131.394 27.785-36.202 67.379-63.676 118.784-82.424 51.746-19.071 112.981-28.606 183.774-28.606 107.657 0 192.512 22.303 254.566 66.91 62.396 44.605 95.164 106.343 98.441 185.212z"></path>
<path fill="#475467" d="M7947.264 816.483l1.911-318.058h34.953l180.361-250.182h300.578l-302.558 389.818h-75.639l-139.605 178.422zM7706.761 992.973v-992.973h267.674v992.973h-267.674zM8166.4 992.973l-170.667-294.789 174.558-190.063 302.558 484.852h-306.449z"></path>
<path fill="#475467" d="M7210.257 1006.544c-80.828 0-149.982-16.002-207.531-48.005-57.549-32.317-101.649-77.251-132.369-134.786-30.72-57.856-46.053-124.928-46.053-201.212s15.333-143.192 46.053-200.727c30.72-57.859 74.82-102.788 132.369-134.788 57.549-32.324 126.703-48.485 207.531-48.485 73.045 0 136.26 13.253 189.577 39.758 53.658 26.182 95.164 63.354 124.587 111.515 29.423 47.839 44.305 104.081 44.646 168.727h-248.286c-3.55-39.111-14.882-68.848-33.929-89.212-18.773-20.687-43.008-31.030-72.704-31.030-23.279 0-43.691 6.788-61.099 20.363-17.476 13.253-31.061 33.455-40.755 60.606-9.694 26.828-14.541 60.606-14.541 101.333s4.847 74.667 14.541 101.816c9.694 26.829 23.279 47.036 40.755 60.607 17.408 13.251 37.82 19.879 61.099 19.879 19.661 0 37.137-4.526 52.361-13.578 15.155-9.373 27.443-22.944 36.796-40.721 9.762-18.104 15.565-40.086 17.476-65.943h248.286c-1.024 65.615-16.043 122.829-45.124 171.633-29.082 48.49-70.315 85.982-123.631 112.49-53.043 26.501-116.395 39.759-190.054 39.759z"></path>
<path fill="#475467" d="M6420.391 667.151v-418.91h267.639v744.724h-254.061v-141.571h-7.762c-16.159 47.514-44.442 84.685-84.842 111.514-40.407 26.508-88.405 39.759-144.002 39.759-52.040 0-97.621-11.96-136.731-35.881-38.789-23.921-69.011-56.887-90.665-98.905-21.333-42.025-32.16-90.187-32.481-144.486v-475.153h267.633v418.91c0.321 36.849 9.701 65.78 28.119 86.786 18.753 21.012 44.933 31.519 78.548 31.519 22.303 0 41.533-4.69 57.699-14.063 16.486-9.694 29.088-23.272 37.82-40.728 9.045-17.777 13.414-38.946 13.087-63.514z"></path>
<path fill="#475467" d="M5318.178 992.966v-744.727h259.878v141.576h7.755c13.578-52.363 35.075-90.666 64.485-114.909 29.737-24.242 64.485-36.364 104.243-36.364 11.639 0 23.115 0.97 34.427 2.91 11.633 1.616 22.787 4.040 33.457 7.272v228.364c-13.257-4.525-29.58-7.919-48.975-10.182s-36.038-3.394-49.937-3.394c-26.18 0-49.78 5.979-70.786 17.939-20.692 11.637-37.014 28.121-48.975 49.454-11.96 21.010-17.94 45.737-17.94 74.182v387.879h-267.633z"></path>
<path fill="#475467" d="M4399.841 217.212v-217.212h863.027v217.212h-298.667v775.761h-265.694v-775.761h-298.667z"></path>
<path fill="#101828" d="M4267.199 0v992.973h-267.633v-992.973h267.633z"></path>
<path fill="#101828" d="M3498.441 1006.544c-79.517 0-148.043-15.196-205.578-45.582-57.214-30.706-101.335-74.663-132.362-131.878-30.706-57.535-46.060-126.382-46.060-206.544 0-76.929 15.51-144.161 46.544-201.697 31.027-57.536 74.827-102.303 131.393-134.303s123.317-48 200.24-48c56.245 0 107.151 8.727 152.733 26.182 45.575 17.455 84.521 42.828 116.845 76.121 32.324 32.97 57.214 73.051 74.67 120.243 17.449 47.191 26.18 100.364 26.18 159.515v62.061h-665.211v-147.394h418.905c-0.321-21.333-5.816-40.081-16.48-56.242-10.349-16.485-24.405-29.252-42.182-38.303-17.456-9.374-37.335-14.061-59.638-14.061-21.661 0-41.54 4.687-59.638 14.061-18.104 9.051-32.645 21.656-43.636 37.818-10.67 16.161-16.323 35.071-16.971 56.727v159.031c0 23.921 5.011 45.254 15.032 64s24.405 33.457 43.151 44.121c18.746 10.67 41.37 16.002 67.878 16.002 18.425 0 35.232-2.587 50.422-7.762 15.517-5.168 28.768-12.602 39.759-22.303 10.991-10.015 19.074-21.975 24.241-35.874h244.367c-8.404 51.712-28.283 96.645-59.638 134.786-31.355 37.82-72.888 67.236-124.607 88.241-51.391 20.685-111.514 31.034-180.361 31.034z"></path>
<path fill="#101828" d="M3060.832 248.241l-250.184 744.724h-310.306l-250.177-744.724h281.211l120.238 492.609h7.762l120.238-492.609h281.218z"></path>
<path fill="#101828" d="M1710.49 1004.605c-47.514 0-89.532-7.762-126.061-23.279-36.202-15.838-64.642-39.752-85.333-71.755-20.685-31.997-31.027-72.724-31.027-122.184 0-40.728 6.95-75.476 20.849-104.243 13.899-29.088 33.294-52.845 58.184-71.27 24.883-18.424 53.815-32.485 86.787-42.182 33.294-9.697 69.168-16 107.636-18.909 41.697-3.232 75.148-7.111 100.359-11.637 25.539-4.848 43.964-11.475 55.276-19.879 11.312-8.727 16.971-20.202 16.971-34.424v-1.939c0-19.394-7.434-34.263-22.303-44.606s-33.942-15.515-57.214-15.515c-25.539 0-46.38 5.657-62.546 16.97-15.838 10.99-25.375 27.959-28.604 50.909h-246.306c3.236-45.253 17.62-86.949 43.151-125.090 25.859-38.465 63.515-69.172 112.975-92.121 49.452-23.273 111.186-34.91 185.207-34.91 53.337 0 101.171 6.303 143.517 18.909 42.346 12.283 78.384 29.576 108.121 51.879 29.737 21.98 52.361 47.839 67.878 77.576 15.838 29.414 23.757 61.414 23.757 96v510.061h-250.177v-104.728h-5.823c-14.868 27.798-32.966 50.265-54.299 67.393-21.012 17.135-45.090 29.58-72.247 37.335-26.829 7.755-56.402 11.639-88.726 11.639zM1797.762 835.878c20.364 0 39.438-4.205 57.214-12.609 18.097-8.404 32.809-20.528 44.121-36.366s16.971-35.069 16.971-57.692v-62.063c-7.113 2.909-14.711 5.657-22.787 8.243-7.762 2.586-16.166 5.010-25.211 7.272-8.731 2.264-18.104 4.366-28.126 6.305-9.694 1.939-19.879 3.714-30.543 5.332-20.685 3.229-37.656 8.567-50.913 16.002-12.93 7.107-22.624 15.995-29.088 26.665-6.144 10.342-9.209 21.982-9.209 34.912 0 20.685 7.27 36.523 21.818 47.514 14.541 10.991 33.13 16.486 55.753 16.486z"></path>
<path fill="#101828" d="M918.337 992.966v-744.727h259.878v141.576h7.762c13.571-52.363 35.069-90.666 64.485-114.909 29.737-24.242 64.485-36.364 104.243-36.364 11.633 0 23.108 0.97 34.42 2.91 11.639 1.616 22.787 4.040 33.457 7.272v228.364c-13.257-4.525-29.58-7.919-48.975-10.182-19.388-2.262-36.038-3.394-49.937-3.394-26.18 0-49.78 5.979-70.786 17.939-20.692 11.637-37.014 28.121-48.975 49.454-11.953 21.010-17.934 45.737-17.934 74.182v387.879h-267.639z"></path>
<path fill="#101828" d="M0 217.212v-217.212h863.027v217.212h-298.663v775.761h-265.697v-775.761h-298.667z"></path>
</svg>
